G04 Layer: BottomLayer*
G04 EasyEDA v6.3.38, 2020-04-19T01:24:54+01:00*
G04 25926d0f09aa464bb59590b1fa944b2e,2ce125542fee449aab8aeb6989d11efb,10*
G04 Gerber Generator version 0.2*
G04 Scale: 100 percent, Rotated: No, Reflected: No *
G04 Dimensions in inches *
G04 leading zeros omitted , absolute positions ,2 integer and 4 decimal *
%FSLAX24Y24*%
%MOIN*%
G90*
G70D02*

%ADD10C,0.010000*%
%ADD11C,0.074000*%
%ADD12R,0.062000X0.062000*%
%ADD13C,0.062000*%
%ADD14C,0.065000*%
%ADD15C,0.047000*%
%ADD17C,0.078740*%

%LPD*%
G54D10*
G01X7200Y1750D02*
G01X4250Y1750D01*
G01X4250Y1750D02*
G01X3855Y2144D01*
G01X1694Y2144D01*
G01X1250Y1700D01*
G01X11300Y2750D02*
G01X9300Y2750D01*
G01X9300Y2750D02*
G01X7200Y2750D01*
G01X7200Y2750D02*
G01X4250Y2750D01*
G01X4250Y2750D02*
G01X3855Y3144D01*
G01X1694Y3144D01*
G01X1250Y2700D01*
G01X15300Y3650D02*
G01X14400Y2750D01*
G01X11300Y2750D01*
G01X15300Y2650D02*
G01X13400Y750D01*
G01X13250Y750D01*
G01X11300Y3750D02*
G01X13250Y3750D01*
G01X7200Y3750D02*
G01X9300Y3750D01*
G01X9300Y3750D02*
G01X11300Y3750D01*
G01X6250Y6250D02*
G01X6250Y10650D01*
G01X8300Y12700D01*
G54D11*
G01X13250Y3750D03*
G01X13250Y750D03*
G01X10250Y5800D03*
G01X13250Y5800D03*
G01X4250Y15750D03*
G01X7250Y15750D03*
G01X10250Y7700D03*
G01X13250Y7700D03*
G54D12*
G01X2250Y700D03*
G54D13*
G01X1250Y700D03*
G01X2250Y1700D03*
G01X1250Y1700D03*
G01X2250Y2700D03*
G01X1250Y2700D03*
G01X2250Y3700D03*
G01X1250Y3700D03*
G01X2250Y4700D03*
G01X1250Y4700D03*
G01X2250Y5700D03*
G01X1250Y5700D03*
G01X2250Y6700D03*
G01X1250Y6700D03*
G01X2250Y7700D03*
G01X1250Y7700D03*
G01X2250Y8700D03*
G01X1250Y8700D03*
G01X2250Y9700D03*
G01X1250Y9700D03*
G01X2250Y10700D03*
G01X1250Y10700D03*
G01X2250Y11700D03*
G01X1250Y11700D03*
G01X2250Y12700D03*
G01X1250Y12700D03*
G01X2250Y13700D03*
G01X1250Y13700D03*
G01X2250Y14700D03*
G01X1250Y14700D03*
G01X2250Y15700D03*
G01X1250Y15700D03*
G54D14*
G01X15300Y2650D03*
G01X15300Y3650D03*
G54D15*
G01X4250Y2750D03*
G01X4250Y1750D03*
G01X9300Y2750D03*
G01X9300Y3750D03*
G01X11300Y2750D03*
G01X11300Y3750D03*
G01X6250Y6250D03*
G01X5250Y6250D03*
G01X13250Y10800D03*
G01X13250Y9800D03*
G01X7300Y12700D03*
G01X8300Y12700D03*
G01X5250Y14700D03*
G01X6250Y14700D03*
G36*
G01X6707Y1355D02*
G01X6707Y2144D01*
G01X7692Y2144D01*
G01X7692Y1355D01*
G01X6707Y1355D01*
G37*
G54D17*
G01X7101Y2750D02*
G01X7298Y2750D01*
G01X7101Y3750D02*
G01X7298Y3750D01*
M00*
M02*
