;Layer: Drill PTH
;EasyEDA v6.3.38, 2020-04-19T01:24:54+01:00
;25926d0f09aa464bb59590b1fa944b2e,2ce125542fee449aab8aeb6989d11efb,10
;Gerber Generator version 0.2
M48
INCH,LZ,00.0000
;Holesize 1 = 0.028 INCH
T01C0.028
;Holesize 2 = 0.035 INCH
T02C0.035
;Holesize 3 = 0.035 INCH
T03C0.035
;Holesize 4 = 0.035 INCH
T04C0.035
;Holesize 5 = 0.055 INCH
T05C0.055
%
G05
G90
T01
X+004250Y+002750
X+004250Y+001750
X+009300Y+002750
X+009300Y+003750
X+011300Y+002750
X+011300Y+003750
X+006250Y+006250
X+005250Y+006250
X+013250Y+010800
X+013250Y+009800
X+007300Y+012700
X+008300Y+012700
X+005250Y+014700
X+006250Y+014700
T02
X+002250Y+000700
X+001250Y+000700
X+002250Y+001700
X+001250Y+001700
X+002250Y+002700
X+001250Y+002700
X+002250Y+003700
X+001250Y+003700
X+002250Y+004700
X+001250Y+004700
X+002250Y+005700
X+001250Y+005700
X+002250Y+006700
X+001250Y+006700
X+002250Y+007700
X+001250Y+007700
X+002250Y+008700
X+001250Y+008700
X+002250Y+009700
X+001250Y+009700
X+002250Y+010700
X+001250Y+010700
X+002250Y+011700
X+001250Y+011700
X+002250Y+012700
X+001250Y+012700
X+002250Y+013700
X+001250Y+013700
X+002250Y+014700
X+001250Y+014700
X+002250Y+015700
X+001250Y+015700
T03
X+013250Y+003750
X+013250Y+000750
X+010250Y+005800
X+013250Y+005800
X+004250Y+015750
X+007250Y+015750
X+010250Y+007700
X+013250Y+007700
T04
X+015300Y+002650
X+015300Y+003650
T05
X+007200Y+002750
X+007200Y+003750
X+007200Y+001750
M30
