G04 Layer: TopLayer*
G04 EasyEDA v6.3.38, 2020-04-19T01:24:54+01:00*
G04 25926d0f09aa464bb59590b1fa944b2e,2ce125542fee449aab8aeb6989d11efb,10*
G04 Gerber Generator version 0.2*
G04 Scale: 100 percent, Rotated: No, Reflected: No *
G04 Dimensions in inches *
G04 leading zeros omitted , absolute positions ,2 integer and 4 decimal *
%FSLAX24Y24*%
%MOIN*%
G90*
G70D02*

%ADD10C,0.010000*%
%ADD11C,0.074000*%
%ADD12R,0.062000X0.062000*%
%ADD13C,0.062000*%
%ADD14C,0.065000*%
%ADD15C,0.047000*%
%ADD17C,0.078740*%

%LPD*%
G54D10*
G01X5250Y14700D02*
G01X4723Y14173D01*
G01X4723Y9380D01*
G01X4859Y9244D01*
G01X5105Y9244D01*
G01X13250Y10800D02*
G01X11498Y9048D01*
G01X6894Y9048D01*
G01X6250Y14700D02*
G01X7300Y13650D01*
G01X7300Y12700D01*
G01X7300Y12700D02*
G01X5507Y10907D01*
G01X5507Y9844D01*
G01X5250Y6250D02*
G01X5507Y6507D01*
G01X5507Y8055D01*
G01X4250Y2750D02*
G01X5250Y3750D01*
G01X5250Y6250D01*
G01X13250Y9800D02*
G01X13250Y7700D01*
G01X13250Y7700D02*
G01X15300Y5650D01*
G01X15300Y3650D01*
G01X5507Y9244D02*
G01X6894Y9244D01*
G01X5507Y8055D02*
G01X5507Y9244D01*
G01X5507Y9244D02*
G01X5507Y9844D01*
G01X6894Y8851D02*
G01X9098Y8851D01*
G01X10250Y7700D01*
G01X5105Y8655D02*
G01X3730Y8655D01*
G01X3730Y8655D02*
G01X3730Y10842D01*
G01X2365Y12207D01*
G01X2119Y12207D01*
G01X1828Y12500D01*
G01X1828Y12938D01*
G01X2090Y13200D01*
G01X2380Y13200D01*
G01X4250Y15069D01*
G01X4250Y15750D01*
G01X2250Y2700D02*
G01X3730Y4180D01*
G01X3730Y8655D01*
G01X10250Y5800D02*
G01X8580Y4130D01*
G01X8580Y2078D01*
G01X7748Y1244D01*
G01X5265Y1244D01*
G01X3661Y2848D01*
G01X3661Y2848D02*
G01X4398Y3584D01*
G01X4398Y7751D01*
G01X5105Y8457D01*
G01X3661Y2848D02*
G01X3398Y2848D01*
G01X2250Y1700D01*
G01X6250Y6250D02*
G01X7200Y5300D01*
G01X7200Y3750D01*
G01X6894Y8655D02*
G01X7132Y8655D01*
G01X7242Y8546D01*
G01X7242Y7242D01*
G01X6250Y6250D01*
G01X7250Y15750D02*
G01X8300Y14700D01*
G01X8300Y12700D01*
G01X8300Y12700D02*
G01X8300Y11653D01*
G01X6492Y9844D01*
G01X13250Y5800D02*
G01X13250Y3750D01*
G36*
G01X5563Y9663D02*
G01X5562Y9656D01*
G01X5561Y9650D01*
G01X5559Y9643D01*
G01X5556Y9637D01*
G01X5552Y9631D01*
G01X5548Y9626D01*
G01X5542Y9621D01*
G01X5537Y9617D01*
G01X5531Y9613D01*
G01X5524Y9611D01*
G01X5518Y9609D01*
G01X5511Y9608D01*
G01X5504Y9608D01*
G01X5497Y9609D01*
G01X5490Y9611D01*
G01X5484Y9613D01*
G01X5478Y9617D01*
G01X5472Y9621D01*
G01X5467Y9626D01*
G01X5463Y9631D01*
G01X5459Y9637D01*
G01X5456Y9643D01*
G01X5454Y9650D01*
G01X5453Y9656D01*
G01X5452Y9663D01*
G01X5452Y10026D01*
G01X5453Y10032D01*
G01X5454Y10039D01*
G01X5456Y10046D01*
G01X5459Y10052D01*
G01X5463Y10058D01*
G01X5467Y10063D01*
G01X5472Y10068D01*
G01X5478Y10072D01*
G01X5484Y10075D01*
G01X5490Y10078D01*
G01X5497Y10080D01*
G01X5504Y10080D01*
G01X5511Y10080D01*
G01X5518Y10080D01*
G01X5524Y10078D01*
G01X5531Y10075D01*
G01X5537Y10072D01*
G01X5542Y10068D01*
G01X5548Y10063D01*
G01X5552Y10058D01*
G01X5556Y10052D01*
G01X5559Y10046D01*
G01X5561Y10039D01*
G01X5562Y10032D01*
G01X5563Y10026D01*
G01X5563Y9663D01*
G37*
G36*
G01X5759Y9663D02*
G01X5759Y9656D01*
G01X5758Y9650D01*
G01X5755Y9643D01*
G01X5753Y9637D01*
G01X5749Y9631D01*
G01X5744Y9626D01*
G01X5739Y9621D01*
G01X5734Y9617D01*
G01X5728Y9613D01*
G01X5721Y9611D01*
G01X5715Y9609D01*
G01X5708Y9608D01*
G01X5701Y9608D01*
G01X5694Y9609D01*
G01X5687Y9611D01*
G01X5681Y9613D01*
G01X5675Y9617D01*
G01X5669Y9621D01*
G01X5664Y9626D01*
G01X5660Y9631D01*
G01X5656Y9637D01*
G01X5653Y9643D01*
G01X5651Y9650D01*
G01X5650Y9656D01*
G01X5649Y9663D01*
G01X5649Y10026D01*
G01X5650Y10032D01*
G01X5651Y10039D01*
G01X5653Y10046D01*
G01X5656Y10052D01*
G01X5660Y10058D01*
G01X5664Y10063D01*
G01X5669Y10068D01*
G01X5675Y10072D01*
G01X5681Y10075D01*
G01X5687Y10078D01*
G01X5694Y10080D01*
G01X5701Y10080D01*
G01X5708Y10080D01*
G01X5715Y10080D01*
G01X5721Y10078D01*
G01X5728Y10075D01*
G01X5734Y10072D01*
G01X5739Y10068D01*
G01X5744Y10063D01*
G01X5749Y10058D01*
G01X5753Y10052D01*
G01X5755Y10046D01*
G01X5758Y10039D01*
G01X5759Y10032D01*
G01X5759Y10026D01*
G01X5759Y9663D01*
G37*
G36*
G01X5956Y9663D02*
G01X5956Y9656D01*
G01X5955Y9650D01*
G01X5952Y9643D01*
G01X5949Y9637D01*
G01X5946Y9631D01*
G01X5941Y9626D01*
G01X5936Y9621D01*
G01X5931Y9617D01*
G01X5925Y9613D01*
G01X5918Y9611D01*
G01X5911Y9609D01*
G01X5905Y9608D01*
G01X5898Y9608D01*
G01X5891Y9609D01*
G01X5884Y9611D01*
G01X5878Y9613D01*
G01X5871Y9617D01*
G01X5866Y9621D01*
G01X5861Y9626D01*
G01X5857Y9631D01*
G01X5853Y9637D01*
G01X5850Y9643D01*
G01X5848Y9650D01*
G01X5846Y9656D01*
G01X5846Y9663D01*
G01X5846Y10026D01*
G01X5846Y10032D01*
G01X5848Y10039D01*
G01X5850Y10046D01*
G01X5853Y10052D01*
G01X5857Y10058D01*
G01X5861Y10063D01*
G01X5866Y10068D01*
G01X5871Y10072D01*
G01X5878Y10075D01*
G01X5884Y10078D01*
G01X5891Y10080D01*
G01X5898Y10080D01*
G01X5905Y10080D01*
G01X5911Y10080D01*
G01X5918Y10078D01*
G01X5925Y10075D01*
G01X5931Y10072D01*
G01X5936Y10068D01*
G01X5941Y10063D01*
G01X5946Y10058D01*
G01X5949Y10052D01*
G01X5952Y10046D01*
G01X5955Y10039D01*
G01X5956Y10032D01*
G01X5956Y10026D01*
G01X5956Y9663D01*
G37*
G36*
G01X6153Y9663D02*
G01X6153Y9656D01*
G01X6151Y9650D01*
G01X6149Y9643D01*
G01X6146Y9637D01*
G01X6142Y9631D01*
G01X6138Y9626D01*
G01X6133Y9621D01*
G01X6128Y9617D01*
G01X6121Y9613D01*
G01X6115Y9611D01*
G01X6108Y9609D01*
G01X6101Y9608D01*
G01X6094Y9608D01*
G01X6088Y9609D01*
G01X6081Y9611D01*
G01X6075Y9613D01*
G01X6068Y9617D01*
G01X6063Y9621D01*
G01X6058Y9626D01*
G01X6053Y9631D01*
G01X6050Y9637D01*
G01X6047Y9643D01*
G01X6044Y9650D01*
G01X6043Y9656D01*
G01X6043Y9663D01*
G01X6043Y10026D01*
G01X6043Y10032D01*
G01X6044Y10039D01*
G01X6047Y10046D01*
G01X6050Y10052D01*
G01X6053Y10058D01*
G01X6058Y10063D01*
G01X6063Y10068D01*
G01X6068Y10072D01*
G01X6075Y10075D01*
G01X6081Y10078D01*
G01X6088Y10080D01*
G01X6094Y10080D01*
G01X6101Y10080D01*
G01X6108Y10080D01*
G01X6115Y10078D01*
G01X6121Y10075D01*
G01X6128Y10072D01*
G01X6133Y10068D01*
G01X6138Y10063D01*
G01X6142Y10058D01*
G01X6146Y10052D01*
G01X6149Y10046D01*
G01X6151Y10039D01*
G01X6153Y10032D01*
G01X6153Y10026D01*
G01X6153Y9663D01*
G37*
G36*
G01X6350Y9663D02*
G01X6350Y9656D01*
G01X6348Y9650D01*
G01X6346Y9643D01*
G01X6343Y9637D01*
G01X6339Y9631D01*
G01X6335Y9626D01*
G01X6330Y9621D01*
G01X6324Y9617D01*
G01X6318Y9613D01*
G01X6312Y9611D01*
G01X6305Y9609D01*
G01X6298Y9608D01*
G01X6291Y9608D01*
G01X6284Y9609D01*
G01X6278Y9611D01*
G01X6271Y9613D01*
G01X6265Y9617D01*
G01X6260Y9621D01*
G01X6255Y9626D01*
G01X6250Y9631D01*
G01X6246Y9637D01*
G01X6244Y9643D01*
G01X6241Y9650D01*
G01X6240Y9656D01*
G01X6240Y9663D01*
G01X6240Y10026D01*
G01X6240Y10032D01*
G01X6241Y10039D01*
G01X6244Y10046D01*
G01X6246Y10052D01*
G01X6250Y10058D01*
G01X6255Y10063D01*
G01X6260Y10068D01*
G01X6265Y10072D01*
G01X6271Y10075D01*
G01X6278Y10078D01*
G01X6284Y10080D01*
G01X6291Y10080D01*
G01X6298Y10080D01*
G01X6305Y10080D01*
G01X6312Y10078D01*
G01X6318Y10075D01*
G01X6324Y10072D01*
G01X6330Y10068D01*
G01X6335Y10063D01*
G01X6339Y10058D01*
G01X6343Y10052D01*
G01X6346Y10046D01*
G01X6348Y10039D01*
G01X6350Y10032D01*
G01X6350Y10026D01*
G01X6350Y9663D01*
G37*
G36*
G01X6547Y9663D02*
G01X6546Y9656D01*
G01X6545Y9650D01*
G01X6543Y9643D01*
G01X6540Y9637D01*
G01X6536Y9631D01*
G01X6532Y9626D01*
G01X6527Y9621D01*
G01X6521Y9617D01*
G01X6515Y9613D01*
G01X6509Y9611D01*
G01X6502Y9609D01*
G01X6495Y9608D01*
G01X6488Y9608D01*
G01X6481Y9609D01*
G01X6475Y9611D01*
G01X6468Y9613D01*
G01X6462Y9617D01*
G01X6457Y9621D01*
G01X6451Y9626D01*
G01X6447Y9631D01*
G01X6443Y9637D01*
G01X6440Y9643D01*
G01X6438Y9650D01*
G01X6437Y9656D01*
G01X6436Y9663D01*
G01X6436Y10026D01*
G01X6437Y10032D01*
G01X6438Y10039D01*
G01X6440Y10046D01*
G01X6443Y10052D01*
G01X6447Y10058D01*
G01X6451Y10063D01*
G01X6457Y10068D01*
G01X6462Y10072D01*
G01X6468Y10075D01*
G01X6475Y10078D01*
G01X6481Y10080D01*
G01X6488Y10080D01*
G01X6495Y10080D01*
G01X6502Y10080D01*
G01X6509Y10078D01*
G01X6515Y10075D01*
G01X6521Y10072D01*
G01X6527Y10068D01*
G01X6532Y10063D01*
G01X6536Y10058D01*
G01X6540Y10052D01*
G01X6543Y10046D01*
G01X6545Y10039D01*
G01X6546Y10032D01*
G01X6547Y10026D01*
G01X6547Y9663D01*
G37*
G36*
G01X6713Y9386D02*
G01X6706Y9387D01*
G01X6700Y9388D01*
G01X6693Y9390D01*
G01X6687Y9393D01*
G01X6681Y9397D01*
G01X6676Y9401D01*
G01X6671Y9407D01*
G01X6667Y9412D01*
G01X6663Y9418D01*
G01X6661Y9425D01*
G01X6659Y9431D01*
G01X6658Y9438D01*
G01X6658Y9445D01*
G01X6659Y9452D01*
G01X6661Y9459D01*
G01X6663Y9465D01*
G01X6667Y9471D01*
G01X6671Y9477D01*
G01X6676Y9482D01*
G01X6681Y9486D01*
G01X6687Y9490D01*
G01X6693Y9493D01*
G01X6700Y9495D01*
G01X6706Y9496D01*
G01X6713Y9497D01*
G01X7076Y9497D01*
G01X7082Y9496D01*
G01X7089Y9495D01*
G01X7096Y9493D01*
G01X7102Y9490D01*
G01X7108Y9486D01*
G01X7113Y9482D01*
G01X7118Y9477D01*
G01X7122Y9471D01*
G01X7125Y9465D01*
G01X7128Y9459D01*
G01X7130Y9452D01*
G01X7130Y9445D01*
G01X7130Y9438D01*
G01X7130Y9431D01*
G01X7128Y9425D01*
G01X7125Y9418D01*
G01X7122Y9412D01*
G01X7118Y9407D01*
G01X7113Y9401D01*
G01X7108Y9397D01*
G01X7102Y9393D01*
G01X7096Y9390D01*
G01X7089Y9388D01*
G01X7082Y9387D01*
G01X7076Y9386D01*
G01X6713Y9386D01*
G37*
G36*
G01X6713Y9190D02*
G01X6706Y9190D01*
G01X6700Y9191D01*
G01X6693Y9194D01*
G01X6687Y9196D01*
G01X6681Y9200D01*
G01X6676Y9205D01*
G01X6671Y9210D01*
G01X6667Y9215D01*
G01X6663Y9221D01*
G01X6661Y9228D01*
G01X6659Y9234D01*
G01X6658Y9241D01*
G01X6658Y9248D01*
G01X6659Y9255D01*
G01X6661Y9262D01*
G01X6663Y9268D01*
G01X6667Y9274D01*
G01X6671Y9280D01*
G01X6676Y9285D01*
G01X6681Y9289D01*
G01X6687Y9293D01*
G01X6693Y9296D01*
G01X6700Y9298D01*
G01X6706Y9300D01*
G01X6713Y9300D01*
G01X7076Y9300D01*
G01X7082Y9300D01*
G01X7089Y9298D01*
G01X7096Y9296D01*
G01X7102Y9293D01*
G01X7108Y9289D01*
G01X7113Y9285D01*
G01X7118Y9280D01*
G01X7122Y9274D01*
G01X7125Y9268D01*
G01X7128Y9262D01*
G01X7130Y9255D01*
G01X7130Y9248D01*
G01X7130Y9241D01*
G01X7130Y9234D01*
G01X7128Y9228D01*
G01X7125Y9221D01*
G01X7122Y9215D01*
G01X7118Y9210D01*
G01X7113Y9205D01*
G01X7108Y9200D01*
G01X7102Y9196D01*
G01X7096Y9194D01*
G01X7089Y9191D01*
G01X7082Y9190D01*
G01X7076Y9190D01*
G01X6713Y9190D01*
G37*
G36*
G01X6713Y8993D02*
G01X6706Y8993D01*
G01X6700Y8994D01*
G01X6693Y8997D01*
G01X6687Y9000D01*
G01X6681Y9003D01*
G01X6676Y9008D01*
G01X6671Y9013D01*
G01X6667Y9018D01*
G01X6663Y9025D01*
G01X6661Y9031D01*
G01X6659Y9038D01*
G01X6658Y9044D01*
G01X6658Y9051D01*
G01X6659Y9058D01*
G01X6661Y9065D01*
G01X6663Y9071D01*
G01X6667Y9078D01*
G01X6671Y9083D01*
G01X6676Y9088D01*
G01X6681Y9092D01*
G01X6687Y9096D01*
G01X6693Y9099D01*
G01X6700Y9101D01*
G01X6706Y9103D01*
G01X6713Y9103D01*
G01X7076Y9103D01*
G01X7082Y9103D01*
G01X7089Y9101D01*
G01X7096Y9099D01*
G01X7102Y9096D01*
G01X7108Y9092D01*
G01X7113Y9088D01*
G01X7118Y9083D01*
G01X7122Y9078D01*
G01X7125Y9071D01*
G01X7128Y9065D01*
G01X7130Y9058D01*
G01X7130Y9051D01*
G01X7130Y9044D01*
G01X7130Y9038D01*
G01X7128Y9031D01*
G01X7125Y9025D01*
G01X7122Y9018D01*
G01X7118Y9013D01*
G01X7113Y9008D01*
G01X7108Y9003D01*
G01X7102Y9000D01*
G01X7096Y8997D01*
G01X7089Y8994D01*
G01X7082Y8993D01*
G01X7076Y8993D01*
G01X6713Y8993D01*
G37*
G36*
G01X6713Y8796D02*
G01X6706Y8796D01*
G01X6700Y8798D01*
G01X6693Y8800D01*
G01X6687Y8803D01*
G01X6681Y8807D01*
G01X6676Y8811D01*
G01X6671Y8816D01*
G01X6667Y8821D01*
G01X6663Y8828D01*
G01X6661Y8834D01*
G01X6659Y8841D01*
G01X6658Y8848D01*
G01X6658Y8855D01*
G01X6659Y8861D01*
G01X6661Y8868D01*
G01X6663Y8875D01*
G01X6667Y8881D01*
G01X6671Y8886D01*
G01X6676Y8891D01*
G01X6681Y8896D01*
G01X6687Y8899D01*
G01X6693Y8902D01*
G01X6700Y8905D01*
G01X6706Y8906D01*
G01X6713Y8906D01*
G01X7076Y8906D01*
G01X7082Y8906D01*
G01X7089Y8905D01*
G01X7096Y8902D01*
G01X7102Y8899D01*
G01X7108Y8896D01*
G01X7113Y8891D01*
G01X7118Y8886D01*
G01X7122Y8881D01*
G01X7125Y8875D01*
G01X7128Y8868D01*
G01X7130Y8861D01*
G01X7130Y8855D01*
G01X7130Y8848D01*
G01X7130Y8841D01*
G01X7128Y8834D01*
G01X7125Y8828D01*
G01X7122Y8821D01*
G01X7118Y8816D01*
G01X7113Y8811D01*
G01X7108Y8807D01*
G01X7102Y8803D01*
G01X7096Y8800D01*
G01X7089Y8798D01*
G01X7082Y8796D01*
G01X7076Y8796D01*
G01X6713Y8796D01*
G37*
G36*
G01X6713Y8599D02*
G01X6706Y8600D01*
G01X6700Y8601D01*
G01X6693Y8603D01*
G01X6687Y8606D01*
G01X6681Y8610D01*
G01X6676Y8614D01*
G01X6671Y8619D01*
G01X6667Y8625D01*
G01X6663Y8631D01*
G01X6661Y8637D01*
G01X6659Y8644D01*
G01X6658Y8651D01*
G01X6658Y8658D01*
G01X6659Y8665D01*
G01X6661Y8671D01*
G01X6663Y8678D01*
G01X6667Y8684D01*
G01X6671Y8689D01*
G01X6676Y8694D01*
G01X6681Y8699D01*
G01X6687Y8703D01*
G01X6693Y8705D01*
G01X6700Y8708D01*
G01X6706Y8709D01*
G01X6713Y8709D01*
G01X7076Y8709D01*
G01X7082Y8709D01*
G01X7089Y8708D01*
G01X7096Y8705D01*
G01X7102Y8703D01*
G01X7108Y8699D01*
G01X7113Y8694D01*
G01X7118Y8689D01*
G01X7122Y8684D01*
G01X7125Y8678D01*
G01X7128Y8671D01*
G01X7130Y8665D01*
G01X7130Y8658D01*
G01X7130Y8651D01*
G01X7130Y8644D01*
G01X7128Y8637D01*
G01X7125Y8631D01*
G01X7122Y8625D01*
G01X7118Y8619D01*
G01X7113Y8614D01*
G01X7108Y8610D01*
G01X7102Y8606D01*
G01X7096Y8603D01*
G01X7089Y8601D01*
G01X7082Y8600D01*
G01X7076Y8599D01*
G01X6713Y8599D01*
G37*
G36*
G01X6713Y8402D02*
G01X6706Y8403D01*
G01X6700Y8404D01*
G01X6693Y8406D01*
G01X6687Y8409D01*
G01X6681Y8413D01*
G01X6676Y8417D01*
G01X6671Y8422D01*
G01X6667Y8428D01*
G01X6663Y8434D01*
G01X6661Y8440D01*
G01X6659Y8447D01*
G01X6658Y8454D01*
G01X6658Y8461D01*
G01X6659Y8468D01*
G01X6661Y8474D01*
G01X6663Y8481D01*
G01X6667Y8487D01*
G01X6671Y8492D01*
G01X6676Y8498D01*
G01X6681Y8502D01*
G01X6687Y8506D01*
G01X6693Y8509D01*
G01X6700Y8511D01*
G01X6706Y8512D01*
G01X6713Y8513D01*
G01X7076Y8513D01*
G01X7082Y8512D01*
G01X7089Y8511D01*
G01X7096Y8509D01*
G01X7102Y8506D01*
G01X7108Y8502D01*
G01X7113Y8498D01*
G01X7118Y8492D01*
G01X7122Y8487D01*
G01X7125Y8481D01*
G01X7128Y8474D01*
G01X7130Y8468D01*
G01X7130Y8461D01*
G01X7130Y8454D01*
G01X7130Y8447D01*
G01X7128Y8440D01*
G01X7125Y8434D01*
G01X7122Y8428D01*
G01X7118Y8422D01*
G01X7113Y8417D01*
G01X7108Y8413D01*
G01X7102Y8409D01*
G01X7096Y8406D01*
G01X7089Y8404D01*
G01X7082Y8403D01*
G01X7076Y8402D01*
G01X6713Y8402D01*
G37*
G36*
G01X6436Y8236D02*
G01X6437Y8243D01*
G01X6438Y8249D01*
G01X6440Y8256D01*
G01X6443Y8262D01*
G01X6447Y8268D01*
G01X6451Y8273D01*
G01X6457Y8278D01*
G01X6462Y8282D01*
G01X6468Y8286D01*
G01X6475Y8288D01*
G01X6481Y8290D01*
G01X6488Y8291D01*
G01X6495Y8291D01*
G01X6502Y8290D01*
G01X6509Y8288D01*
G01X6515Y8286D01*
G01X6521Y8282D01*
G01X6527Y8278D01*
G01X6532Y8273D01*
G01X6536Y8268D01*
G01X6540Y8262D01*
G01X6543Y8256D01*
G01X6545Y8249D01*
G01X6546Y8243D01*
G01X6547Y8236D01*
G01X6547Y7873D01*
G01X6546Y7867D01*
G01X6545Y7860D01*
G01X6543Y7853D01*
G01X6540Y7847D01*
G01X6536Y7841D01*
G01X6532Y7836D01*
G01X6527Y7831D01*
G01X6521Y7827D01*
G01X6515Y7824D01*
G01X6509Y7821D01*
G01X6502Y7819D01*
G01X6495Y7819D01*
G01X6488Y7819D01*
G01X6481Y7819D01*
G01X6475Y7821D01*
G01X6468Y7824D01*
G01X6462Y7827D01*
G01X6457Y7831D01*
G01X6451Y7836D01*
G01X6447Y7841D01*
G01X6443Y7847D01*
G01X6440Y7853D01*
G01X6438Y7860D01*
G01X6437Y7867D01*
G01X6436Y7873D01*
G01X6436Y8236D01*
G37*
G36*
G01X6240Y8236D02*
G01X6240Y8243D01*
G01X6241Y8249D01*
G01X6244Y8256D01*
G01X6246Y8262D01*
G01X6250Y8268D01*
G01X6255Y8273D01*
G01X6260Y8278D01*
G01X6265Y8282D01*
G01X6271Y8286D01*
G01X6278Y8288D01*
G01X6284Y8290D01*
G01X6291Y8291D01*
G01X6298Y8291D01*
G01X6305Y8290D01*
G01X6312Y8288D01*
G01X6318Y8286D01*
G01X6324Y8282D01*
G01X6330Y8278D01*
G01X6335Y8273D01*
G01X6339Y8268D01*
G01X6343Y8262D01*
G01X6346Y8256D01*
G01X6348Y8249D01*
G01X6350Y8243D01*
G01X6350Y8236D01*
G01X6350Y7873D01*
G01X6350Y7867D01*
G01X6348Y7860D01*
G01X6346Y7853D01*
G01X6343Y7847D01*
G01X6339Y7841D01*
G01X6335Y7836D01*
G01X6330Y7831D01*
G01X6324Y7827D01*
G01X6318Y7824D01*
G01X6312Y7821D01*
G01X6305Y7819D01*
G01X6298Y7819D01*
G01X6291Y7819D01*
G01X6284Y7819D01*
G01X6278Y7821D01*
G01X6271Y7824D01*
G01X6265Y7827D01*
G01X6260Y7831D01*
G01X6255Y7836D01*
G01X6250Y7841D01*
G01X6246Y7847D01*
G01X6244Y7853D01*
G01X6241Y7860D01*
G01X6240Y7867D01*
G01X6240Y7873D01*
G01X6240Y8236D01*
G37*
G36*
G01X6043Y8236D02*
G01X6043Y8243D01*
G01X6044Y8249D01*
G01X6047Y8256D01*
G01X6050Y8262D01*
G01X6053Y8268D01*
G01X6058Y8273D01*
G01X6063Y8278D01*
G01X6068Y8282D01*
G01X6075Y8286D01*
G01X6081Y8288D01*
G01X6088Y8290D01*
G01X6094Y8291D01*
G01X6101Y8291D01*
G01X6108Y8290D01*
G01X6115Y8288D01*
G01X6121Y8286D01*
G01X6128Y8282D01*
G01X6133Y8278D01*
G01X6138Y8273D01*
G01X6142Y8268D01*
G01X6146Y8262D01*
G01X6149Y8256D01*
G01X6151Y8249D01*
G01X6153Y8243D01*
G01X6153Y8236D01*
G01X6153Y7873D01*
G01X6153Y7867D01*
G01X6151Y7860D01*
G01X6149Y7853D01*
G01X6146Y7847D01*
G01X6142Y7841D01*
G01X6138Y7836D01*
G01X6133Y7831D01*
G01X6128Y7827D01*
G01X6121Y7824D01*
G01X6115Y7821D01*
G01X6108Y7819D01*
G01X6101Y7819D01*
G01X6094Y7819D01*
G01X6088Y7819D01*
G01X6081Y7821D01*
G01X6075Y7824D01*
G01X6068Y7827D01*
G01X6063Y7831D01*
G01X6058Y7836D01*
G01X6053Y7841D01*
G01X6050Y7847D01*
G01X6047Y7853D01*
G01X6044Y7860D01*
G01X6043Y7867D01*
G01X6043Y7873D01*
G01X6043Y8236D01*
G37*
G36*
G01X5846Y8236D02*
G01X5846Y8243D01*
G01X5848Y8249D01*
G01X5850Y8256D01*
G01X5853Y8262D01*
G01X5857Y8268D01*
G01X5861Y8273D01*
G01X5866Y8278D01*
G01X5871Y8282D01*
G01X5878Y8286D01*
G01X5884Y8288D01*
G01X5891Y8290D01*
G01X5898Y8291D01*
G01X5905Y8291D01*
G01X5911Y8290D01*
G01X5918Y8288D01*
G01X5925Y8286D01*
G01X5931Y8282D01*
G01X5936Y8278D01*
G01X5941Y8273D01*
G01X5946Y8268D01*
G01X5949Y8262D01*
G01X5952Y8256D01*
G01X5955Y8249D01*
G01X5956Y8243D01*
G01X5956Y8236D01*
G01X5956Y7873D01*
G01X5956Y7867D01*
G01X5955Y7860D01*
G01X5952Y7853D01*
G01X5949Y7847D01*
G01X5946Y7841D01*
G01X5941Y7836D01*
G01X5936Y7831D01*
G01X5931Y7827D01*
G01X5925Y7824D01*
G01X5918Y7821D01*
G01X5911Y7819D01*
G01X5905Y7819D01*
G01X5898Y7819D01*
G01X5891Y7819D01*
G01X5884Y7821D01*
G01X5878Y7824D01*
G01X5871Y7827D01*
G01X5866Y7831D01*
G01X5861Y7836D01*
G01X5857Y7841D01*
G01X5853Y7847D01*
G01X5850Y7853D01*
G01X5848Y7860D01*
G01X5846Y7867D01*
G01X5846Y7873D01*
G01X5846Y8236D01*
G37*
G36*
G01X5649Y8236D02*
G01X5650Y8243D01*
G01X5651Y8249D01*
G01X5653Y8256D01*
G01X5656Y8262D01*
G01X5660Y8268D01*
G01X5664Y8273D01*
G01X5669Y8278D01*
G01X5675Y8282D01*
G01X5681Y8286D01*
G01X5687Y8288D01*
G01X5694Y8290D01*
G01X5701Y8291D01*
G01X5708Y8291D01*
G01X5715Y8290D01*
G01X5721Y8288D01*
G01X5728Y8286D01*
G01X5734Y8282D01*
G01X5739Y8278D01*
G01X5744Y8273D01*
G01X5749Y8268D01*
G01X5753Y8262D01*
G01X5755Y8256D01*
G01X5758Y8249D01*
G01X5759Y8243D01*
G01X5759Y8236D01*
G01X5759Y7873D01*
G01X5759Y7867D01*
G01X5758Y7860D01*
G01X5755Y7853D01*
G01X5753Y7847D01*
G01X5749Y7841D01*
G01X5744Y7836D01*
G01X5739Y7831D01*
G01X5734Y7827D01*
G01X5728Y7824D01*
G01X5721Y7821D01*
G01X5715Y7819D01*
G01X5708Y7819D01*
G01X5701Y7819D01*
G01X5694Y7819D01*
G01X5687Y7821D01*
G01X5681Y7824D01*
G01X5675Y7827D01*
G01X5669Y7831D01*
G01X5664Y7836D01*
G01X5660Y7841D01*
G01X5656Y7847D01*
G01X5653Y7853D01*
G01X5651Y7860D01*
G01X5650Y7867D01*
G01X5649Y7873D01*
G01X5649Y8236D01*
G37*
G36*
G01X5452Y8236D02*
G01X5453Y8243D01*
G01X5454Y8249D01*
G01X5456Y8256D01*
G01X5459Y8262D01*
G01X5463Y8268D01*
G01X5467Y8273D01*
G01X5472Y8278D01*
G01X5478Y8282D01*
G01X5484Y8286D01*
G01X5490Y8288D01*
G01X5497Y8290D01*
G01X5504Y8291D01*
G01X5511Y8291D01*
G01X5518Y8290D01*
G01X5524Y8288D01*
G01X5531Y8286D01*
G01X5537Y8282D01*
G01X5542Y8278D01*
G01X5548Y8273D01*
G01X5552Y8268D01*
G01X5556Y8262D01*
G01X5559Y8256D01*
G01X5561Y8249D01*
G01X5562Y8243D01*
G01X5563Y8236D01*
G01X5563Y7873D01*
G01X5562Y7867D01*
G01X5561Y7860D01*
G01X5559Y7853D01*
G01X5556Y7847D01*
G01X5552Y7841D01*
G01X5548Y7836D01*
G01X5542Y7831D01*
G01X5537Y7827D01*
G01X5531Y7824D01*
G01X5524Y7821D01*
G01X5518Y7819D01*
G01X5511Y7819D01*
G01X5504Y7819D01*
G01X5497Y7819D01*
G01X5490Y7821D01*
G01X5484Y7824D01*
G01X5478Y7827D01*
G01X5472Y7831D01*
G01X5467Y7836D01*
G01X5463Y7841D01*
G01X5459Y7847D01*
G01X5456Y7853D01*
G01X5454Y7860D01*
G01X5453Y7867D01*
G01X5452Y7873D01*
G01X5452Y8236D01*
G37*
G36*
G01X5286Y8513D02*
G01X5293Y8512D01*
G01X5299Y8511D01*
G01X5306Y8509D01*
G01X5312Y8506D01*
G01X5318Y8502D01*
G01X5323Y8498D01*
G01X5328Y8492D01*
G01X5332Y8487D01*
G01X5336Y8481D01*
G01X5338Y8474D01*
G01X5340Y8468D01*
G01X5341Y8461D01*
G01X5341Y8454D01*
G01X5340Y8447D01*
G01X5338Y8440D01*
G01X5336Y8434D01*
G01X5332Y8428D01*
G01X5328Y8422D01*
G01X5323Y8417D01*
G01X5318Y8413D01*
G01X5312Y8409D01*
G01X5306Y8406D01*
G01X5299Y8404D01*
G01X5293Y8403D01*
G01X5286Y8402D01*
G01X4923Y8402D01*
G01X4917Y8403D01*
G01X4910Y8404D01*
G01X4903Y8406D01*
G01X4897Y8409D01*
G01X4891Y8413D01*
G01X4886Y8417D01*
G01X4881Y8422D01*
G01X4877Y8428D01*
G01X4874Y8434D01*
G01X4871Y8440D01*
G01X4869Y8447D01*
G01X4869Y8454D01*
G01X4869Y8461D01*
G01X4869Y8468D01*
G01X4871Y8474D01*
G01X4874Y8481D01*
G01X4877Y8487D01*
G01X4881Y8492D01*
G01X4886Y8498D01*
G01X4891Y8502D01*
G01X4897Y8506D01*
G01X4903Y8509D01*
G01X4910Y8511D01*
G01X4917Y8512D01*
G01X4923Y8513D01*
G01X5286Y8513D01*
G37*
G36*
G01X5286Y8709D02*
G01X5293Y8709D01*
G01X5299Y8708D01*
G01X5306Y8705D01*
G01X5312Y8703D01*
G01X5318Y8699D01*
G01X5323Y8694D01*
G01X5328Y8689D01*
G01X5332Y8684D01*
G01X5336Y8678D01*
G01X5338Y8671D01*
G01X5340Y8665D01*
G01X5341Y8658D01*
G01X5341Y8651D01*
G01X5340Y8644D01*
G01X5338Y8637D01*
G01X5336Y8631D01*
G01X5332Y8625D01*
G01X5328Y8619D01*
G01X5323Y8614D01*
G01X5318Y8610D01*
G01X5312Y8606D01*
G01X5306Y8603D01*
G01X5299Y8601D01*
G01X5293Y8600D01*
G01X5286Y8599D01*
G01X4923Y8599D01*
G01X4917Y8600D01*
G01X4910Y8601D01*
G01X4903Y8603D01*
G01X4897Y8606D01*
G01X4891Y8610D01*
G01X4886Y8614D01*
G01X4881Y8619D01*
G01X4877Y8625D01*
G01X4874Y8631D01*
G01X4871Y8637D01*
G01X4869Y8644D01*
G01X4869Y8651D01*
G01X4869Y8658D01*
G01X4869Y8665D01*
G01X4871Y8671D01*
G01X4874Y8678D01*
G01X4877Y8684D01*
G01X4881Y8689D01*
G01X4886Y8694D01*
G01X4891Y8699D01*
G01X4897Y8703D01*
G01X4903Y8705D01*
G01X4910Y8708D01*
G01X4917Y8709D01*
G01X4923Y8709D01*
G01X5286Y8709D01*
G37*
G36*
G01X5286Y8906D02*
G01X5293Y8906D01*
G01X5299Y8905D01*
G01X5306Y8902D01*
G01X5312Y8899D01*
G01X5318Y8896D01*
G01X5323Y8891D01*
G01X5328Y8886D01*
G01X5332Y8881D01*
G01X5336Y8875D01*
G01X5338Y8868D01*
G01X5340Y8861D01*
G01X5341Y8855D01*
G01X5341Y8848D01*
G01X5340Y8841D01*
G01X5338Y8834D01*
G01X5336Y8828D01*
G01X5332Y8821D01*
G01X5328Y8816D01*
G01X5323Y8811D01*
G01X5318Y8807D01*
G01X5312Y8803D01*
G01X5306Y8800D01*
G01X5299Y8798D01*
G01X5293Y8796D01*
G01X5286Y8796D01*
G01X4923Y8796D01*
G01X4917Y8796D01*
G01X4910Y8798D01*
G01X4903Y8800D01*
G01X4897Y8803D01*
G01X4891Y8807D01*
G01X4886Y8811D01*
G01X4881Y8816D01*
G01X4877Y8821D01*
G01X4874Y8828D01*
G01X4871Y8834D01*
G01X4869Y8841D01*
G01X4869Y8848D01*
G01X4869Y8855D01*
G01X4869Y8861D01*
G01X4871Y8868D01*
G01X4874Y8875D01*
G01X4877Y8881D01*
G01X4881Y8886D01*
G01X4886Y8891D01*
G01X4891Y8896D01*
G01X4897Y8899D01*
G01X4903Y8902D01*
G01X4910Y8905D01*
G01X4917Y8906D01*
G01X4923Y8906D01*
G01X5286Y8906D01*
G37*
G36*
G01X5286Y9103D02*
G01X5293Y9103D01*
G01X5299Y9101D01*
G01X5306Y9099D01*
G01X5312Y9096D01*
G01X5318Y9092D01*
G01X5323Y9088D01*
G01X5328Y9083D01*
G01X5332Y9078D01*
G01X5336Y9071D01*
G01X5338Y9065D01*
G01X5340Y9058D01*
G01X5341Y9051D01*
G01X5341Y9044D01*
G01X5340Y9038D01*
G01X5338Y9031D01*
G01X5336Y9025D01*
G01X5332Y9018D01*
G01X5328Y9013D01*
G01X5323Y9008D01*
G01X5318Y9003D01*
G01X5312Y9000D01*
G01X5306Y8997D01*
G01X5299Y8994D01*
G01X5293Y8993D01*
G01X5286Y8993D01*
G01X4923Y8993D01*
G01X4917Y8993D01*
G01X4910Y8994D01*
G01X4903Y8997D01*
G01X4897Y9000D01*
G01X4891Y9003D01*
G01X4886Y9008D01*
G01X4881Y9013D01*
G01X4877Y9018D01*
G01X4874Y9025D01*
G01X4871Y9031D01*
G01X4869Y9038D01*
G01X4869Y9044D01*
G01X4869Y9051D01*
G01X4869Y9058D01*
G01X4871Y9065D01*
G01X4874Y9071D01*
G01X4877Y9078D01*
G01X4881Y9083D01*
G01X4886Y9088D01*
G01X4891Y9092D01*
G01X4897Y9096D01*
G01X4903Y9099D01*
G01X4910Y9101D01*
G01X4917Y9103D01*
G01X4923Y9103D01*
G01X5286Y9103D01*
G37*
G36*
G01X5286Y9300D02*
G01X5293Y9300D01*
G01X5299Y9298D01*
G01X5306Y9296D01*
G01X5312Y9293D01*
G01X5318Y9289D01*
G01X5323Y9285D01*
G01X5328Y9280D01*
G01X5332Y9274D01*
G01X5336Y9268D01*
G01X5338Y9262D01*
G01X5340Y9255D01*
G01X5341Y9248D01*
G01X5341Y9241D01*
G01X5340Y9234D01*
G01X5338Y9228D01*
G01X5336Y9221D01*
G01X5332Y9215D01*
G01X5328Y9210D01*
G01X5323Y9205D01*
G01X5318Y9200D01*
G01X5312Y9196D01*
G01X5306Y9194D01*
G01X5299Y9191D01*
G01X5293Y9190D01*
G01X5286Y9190D01*
G01X4923Y9190D01*
G01X4917Y9190D01*
G01X4910Y9191D01*
G01X4903Y9194D01*
G01X4897Y9196D01*
G01X4891Y9200D01*
G01X4886Y9205D01*
G01X4881Y9210D01*
G01X4877Y9215D01*
G01X4874Y9221D01*
G01X4871Y9228D01*
G01X4869Y9234D01*
G01X4869Y9241D01*
G01X4869Y9248D01*
G01X4869Y9255D01*
G01X4871Y9262D01*
G01X4874Y9268D01*
G01X4877Y9274D01*
G01X4881Y9280D01*
G01X4886Y9285D01*
G01X4891Y9289D01*
G01X4897Y9293D01*
G01X4903Y9296D01*
G01X4910Y9298D01*
G01X4917Y9300D01*
G01X4923Y9300D01*
G01X5286Y9300D01*
G37*
G36*
G01X5286Y9497D02*
G01X5293Y9496D01*
G01X5299Y9495D01*
G01X5306Y9493D01*
G01X5312Y9490D01*
G01X5318Y9486D01*
G01X5323Y9482D01*
G01X5328Y9477D01*
G01X5332Y9471D01*
G01X5336Y9465D01*
G01X5338Y9459D01*
G01X5340Y9452D01*
G01X5341Y9445D01*
G01X5341Y9438D01*
G01X5340Y9431D01*
G01X5338Y9425D01*
G01X5336Y9418D01*
G01X5332Y9412D01*
G01X5328Y9407D01*
G01X5323Y9401D01*
G01X5318Y9397D01*
G01X5312Y9393D01*
G01X5306Y9390D01*
G01X5299Y9388D01*
G01X5293Y9387D01*
G01X5286Y9386D01*
G01X4923Y9386D01*
G01X4917Y9387D01*
G01X4910Y9388D01*
G01X4903Y9390D01*
G01X4897Y9393D01*
G01X4891Y9397D01*
G01X4886Y9401D01*
G01X4881Y9407D01*
G01X4877Y9412D01*
G01X4874Y9418D01*
G01X4871Y9425D01*
G01X4869Y9431D01*
G01X4869Y9438D01*
G01X4869Y9445D01*
G01X4869Y9452D01*
G01X4871Y9459D01*
G01X4874Y9465D01*
G01X4877Y9471D01*
G01X4881Y9477D01*
G01X4886Y9482D01*
G01X4891Y9486D01*
G01X4897Y9490D01*
G01X4903Y9493D01*
G01X4910Y9495D01*
G01X4917Y9496D01*
G01X4923Y9497D01*
G01X5286Y9497D01*
G37*
G54D11*
G01X13250Y3750D03*
G01X13250Y750D03*
G01X10250Y5800D03*
G01X13250Y5800D03*
G01X4250Y15750D03*
G01X7250Y15750D03*
G01X10250Y7700D03*
G01X13250Y7700D03*
G54D12*
G01X2250Y700D03*
G54D13*
G01X1250Y700D03*
G01X2250Y1700D03*
G01X1250Y1700D03*
G01X2250Y2700D03*
G01X1250Y2700D03*
G01X2250Y3700D03*
G01X1250Y3700D03*
G01X2250Y4700D03*
G01X1250Y4700D03*
G01X2250Y5700D03*
G01X1250Y5700D03*
G01X2250Y6700D03*
G01X1250Y6700D03*
G01X2250Y7700D03*
G01X1250Y7700D03*
G01X2250Y8700D03*
G01X1250Y8700D03*
G01X2250Y9700D03*
G01X1250Y9700D03*
G01X2250Y10700D03*
G01X1250Y10700D03*
G01X2250Y11700D03*
G01X1250Y11700D03*
G01X2250Y12700D03*
G01X1250Y12700D03*
G01X2250Y13700D03*
G01X1250Y13700D03*
G01X2250Y14700D03*
G01X1250Y14700D03*
G01X2250Y15700D03*
G01X1250Y15700D03*
G54D14*
G01X15300Y2650D03*
G01X15300Y3650D03*
G54D15*
G01X4250Y2750D03*
G01X4250Y1750D03*
G01X9300Y2750D03*
G01X9300Y3750D03*
G01X11300Y2750D03*
G01X11300Y3750D03*
G01X6250Y6250D03*
G01X5250Y6250D03*
G01X13250Y10800D03*
G01X13250Y9800D03*
G01X7300Y12700D03*
G01X8300Y12700D03*
G01X5250Y14700D03*
G01X6250Y14700D03*
G36*
G01X6707Y1355D02*
G01X6707Y2144D01*
G01X7692Y2144D01*
G01X7692Y1355D01*
G01X6707Y1355D01*
G37*
G54D17*
G01X7101Y2750D02*
G01X7298Y2750D01*
G01X7101Y3750D02*
G01X7298Y3750D01*
M00*
M02*
