G04 Layer: BottomSolderMaskLayer*
G04 EasyEDA v6.3.38, 2020-04-19T01:24:54+01:00*
G04 25926d0f09aa464bb59590b1fa944b2e,2ce125542fee449aab8aeb6989d11efb,10*
G04 Gerber Generator version 0.2*
G04 Scale: 100 percent, Rotated: No, Reflected: No *
G04 Dimensions in inches *
G04 leading zeros omitted , absolute positions ,2 integer and 4 decimal *
%FSLAX24Y24*%
%MOIN*%
G90*
G70D02*

%ADD24C,0.086740*%
%ADD25C,0.082000*%
%ADD26R,0.070000X0.070000*%
%ADD27C,0.070000*%
%ADD28C,0.073000*%
%ADD29C,0.055000*%

%LPD*%
G54D24*
G01X7101Y2750D02*
G01X7298Y2750D01*
G01X7101Y3750D02*
G01X7298Y3750D01*
G54D25*
G01X13250Y3750D03*
G01X13250Y750D03*
G01X10250Y5800D03*
G01X13250Y5800D03*
G01X4250Y15750D03*
G01X7250Y15750D03*
G01X10250Y7700D03*
G01X13250Y7700D03*
G54D26*
G01X2250Y700D03*
G54D27*
G01X1250Y700D03*
G01X2250Y1700D03*
G01X1250Y1700D03*
G01X2250Y2700D03*
G01X1250Y2700D03*
G01X2250Y3700D03*
G01X1250Y3700D03*
G01X2250Y4700D03*
G01X1250Y4700D03*
G01X2250Y5700D03*
G01X1250Y5700D03*
G01X2250Y6700D03*
G01X1250Y6700D03*
G01X2250Y7700D03*
G01X1250Y7700D03*
G01X2250Y8700D03*
G01X1250Y8700D03*
G01X2250Y9700D03*
G01X1250Y9700D03*
G01X2250Y10700D03*
G01X1250Y10700D03*
G01X2250Y11700D03*
G01X1250Y11700D03*
G01X2250Y12700D03*
G01X1250Y12700D03*
G01X2250Y13700D03*
G01X1250Y13700D03*
G01X2250Y14700D03*
G01X1250Y14700D03*
G01X2250Y15700D03*
G01X1250Y15700D03*
G54D28*
G01X15300Y2650D03*
G01X15300Y3650D03*
G54D29*
G01X4250Y2750D03*
G01X4250Y1750D03*
G01X9300Y2750D03*
G01X9300Y3750D03*
G01X11300Y2750D03*
G01X11300Y3750D03*
G01X6250Y6250D03*
G01X5250Y6250D03*
G01X13250Y10800D03*
G01X13250Y9800D03*
G01X7300Y12700D03*
G01X8300Y12700D03*
G01X5250Y14700D03*
G01X6250Y14700D03*
G36*
G01X6667Y1315D02*
G01X6667Y2184D01*
G01X7732Y2184D01*
G01X7732Y1315D01*
G01X6667Y1315D01*
G37*
M00*
M02*
