G04 Layer: TopSilkLayer*
G04 EasyEDA v6.3.38, 2020-04-19T01:24:54+01:00*
G04 25926d0f09aa464bb59590b1fa944b2e,2ce125542fee449aab8aeb6989d11efb,10*
G04 Gerber Generator version 0.2*
G04 Scale: 100 percent, Rotated: No, Reflected: No *
G04 Dimensions in inches *
G04 leading zeros omitted , absolute positions ,2 integer and 4 decimal *
%FSLAX24Y24*%
%MOIN*%
G90*
G70D02*

%ADD10C,0.010000*%
%ADD18C,0.008000*%
%ADD19C,0.007870*%
%ADD20C,0.007900*%
%ADD21C,0.009840*%
%ADD22C,0.015748*%
%ADD23C,0.006000*%

%LPD*%
G54D10*
G01X13250Y3250D02*
G01X13250Y3350D01*
G01X13250Y1250D02*
G01X13250Y1150D01*
G01X13250Y3250D02*
G01X13550Y3250D01*
G01X12950Y3250D02*
G01X13250Y3250D01*
G01X12950Y1250D02*
G01X12950Y3250D01*
G01X13250Y1250D02*
G01X12950Y1250D01*
G01X13550Y1250D02*
G01X13250Y1250D01*
G01X13550Y3250D02*
G01X13550Y1250D01*
G01X10750Y5800D02*
G01X10650Y5800D01*
G01X12750Y5800D02*
G01X12850Y5800D01*
G01X10750Y5800D02*
G01X10750Y6100D01*
G01X10750Y5500D02*
G01X10750Y5800D01*
G01X12750Y5500D02*
G01X10750Y5500D01*
G01X12750Y5800D02*
G01X12750Y5500D01*
G01X12750Y6100D02*
G01X12750Y5800D01*
G01X10750Y6100D02*
G01X12750Y6100D01*
G01X4750Y15750D02*
G01X4650Y15750D01*
G01X6750Y15750D02*
G01X6850Y15750D01*
G01X4750Y15750D02*
G01X4750Y16050D01*
G01X4750Y15450D02*
G01X4750Y15750D01*
G01X6750Y15450D02*
G01X4750Y15450D01*
G01X6750Y15750D02*
G01X6750Y15450D01*
G01X6750Y16050D02*
G01X6750Y15750D01*
G01X4750Y16050D02*
G01X6750Y16050D01*
G01X10750Y7700D02*
G01X10650Y7700D01*
G01X12750Y7700D02*
G01X12850Y7700D01*
G01X10750Y7700D02*
G01X10750Y8000D01*
G01X10750Y7400D02*
G01X10750Y7700D01*
G01X12750Y7400D02*
G01X10750Y7400D01*
G01X12750Y7700D02*
G01X12750Y7400D01*
G01X12750Y8000D02*
G01X12750Y7700D01*
G01X10750Y8000D02*
G01X12750Y8000D01*
G54D18*
G01X750Y200D02*
G01X2750Y200D01*
G01X2750Y16200D01*
G01X750Y16200D01*
G01X750Y200D01*
G54D10*
G01X15800Y3811D02*
G01X14796Y3814D01*
G54D19*
G01X6688Y8103D02*
G01X6846Y8103D01*
G01X6846Y8261D01*
G01X6846Y9638D02*
G01X6846Y9796D01*
G01X6688Y9796D01*
G01X5311Y9796D02*
G01X5153Y9796D01*
G01X5153Y9638D01*
G01X5311Y8103D02*
G01X5153Y8103D01*
G01X5153Y8261D01*
G54D20*
G01X4748Y1251D02*
G01X4748Y3251D01*
G01X3748Y3251D01*
G01X3748Y1251D01*
G01X4748Y1251D01*
G01X8801Y4248D02*
G01X8801Y2248D01*
G01X9801Y2248D01*
G01X9801Y4248D01*
G01X8801Y4248D01*
G01X10801Y4248D02*
G01X10801Y2248D01*
G01X11801Y2248D01*
G01X11801Y4248D01*
G01X10801Y4248D01*
G01X4751Y5751D02*
G01X6751Y5751D01*
G01X6751Y6751D01*
G01X4751Y6751D01*
G01X4751Y5751D01*
G01X13748Y9301D02*
G01X13748Y11301D01*
G01X12748Y11301D01*
G01X12748Y9301D01*
G01X13748Y9301D01*
G01X8798Y13198D02*
G01X6798Y13198D01*
G01X6798Y12198D01*
G01X8798Y12198D01*
G01X8798Y13198D01*
G01X6748Y15198D02*
G01X4748Y15198D01*
G01X4748Y14198D01*
G01X6748Y14198D01*
G01X6748Y15198D01*
G54D10*
G01X6294Y4836D02*
G01X6294Y663D01*
G01X6098Y663D02*
G01X6098Y4836D01*
G01X7986Y4836D01*
G01X7986Y663D01*
G01X6100Y663D01*
G01X6098Y663D01*
G54D23*
G01X12296Y2200D02*
G01X12725Y2200D01*
G01X12296Y2200D02*
G01X12296Y2384D01*
G01X12315Y2444D01*
G01X12336Y2465D01*
G01X12378Y2486D01*
G01X12419Y2486D01*
G01X12459Y2465D01*
G01X12480Y2444D01*
G01X12500Y2384D01*
G01X12500Y2200D01*
G01X12500Y2342D02*
G01X12725Y2486D01*
G01X12378Y2621D02*
G01X12357Y2661D01*
G01X12296Y2723D01*
G01X12725Y2723D01*
G01X11750Y6853D02*
G01X11750Y6425D01*
G01X11750Y6853D02*
G01X11934Y6853D01*
G01X11994Y6834D01*
G01X12015Y6813D01*
G01X12036Y6771D01*
G01X12036Y6730D01*
G01X12015Y6690D01*
G01X11994Y6669D01*
G01X11934Y6650D01*
G01X11750Y6650D01*
G01X11892Y6650D02*
G01X12036Y6425D01*
G01X12211Y6853D02*
G01X12436Y6853D01*
G01X12315Y6690D01*
G01X12376Y6690D01*
G01X12417Y6669D01*
G01X12436Y6650D01*
G01X12457Y6588D01*
G01X12457Y6546D01*
G01X12436Y6486D01*
G01X12396Y6444D01*
G01X12334Y6425D01*
G01X12273Y6425D01*
G01X12211Y6444D01*
G01X12192Y6465D01*
G01X12171Y6505D01*
G01X7950Y15953D02*
G01X7950Y15525D01*
G01X7950Y15953D02*
G01X8134Y15953D01*
G01X8194Y15934D01*
G01X8215Y15913D01*
G01X8236Y15871D01*
G01X8236Y15830D01*
G01X8215Y15790D01*
G01X8194Y15769D01*
G01X8134Y15750D01*
G01X7950Y15750D01*
G01X8092Y15750D02*
G01X8236Y15525D01*
G01X8576Y15953D02*
G01X8371Y15667D01*
G01X8678Y15667D01*
G01X8576Y15953D02*
G01X8576Y15525D01*
G01X11750Y8753D02*
G01X11750Y8325D01*
G01X11750Y8753D02*
G01X11934Y8753D01*
G01X11994Y8734D01*
G01X12015Y8713D01*
G01X12036Y8671D01*
G01X12036Y8630D01*
G01X12015Y8590D01*
G01X11994Y8569D01*
G01X11934Y8550D01*
G01X11750Y8550D01*
G01X11892Y8550D02*
G01X12036Y8325D01*
G01X12192Y8651D02*
G01X12192Y8671D01*
G01X12211Y8713D01*
G01X12232Y8734D01*
G01X12273Y8753D01*
G01X12355Y8753D01*
G01X12396Y8734D01*
G01X12417Y8713D01*
G01X12436Y8671D01*
G01X12436Y8630D01*
G01X12417Y8590D01*
G01X12376Y8528D01*
G01X12171Y8325D01*
G01X12457Y8325D01*
G01X196Y8200D02*
G01X625Y8200D01*
G01X196Y8200D02*
G01X196Y8384D01*
G01X215Y8444D01*
G01X236Y8465D01*
G01X278Y8486D01*
G01X319Y8486D01*
G01X359Y8465D01*
G01X380Y8444D01*
G01X400Y8384D01*
G01X400Y8200D01*
G01X400Y8342D02*
G01X625Y8486D01*
G01X196Y8784D02*
G01X625Y8621D01*
G01X196Y8784D02*
G01X625Y8948D01*
G01X482Y8682D02*
G01X482Y8886D01*
G01X257Y9369D02*
G01X215Y9328D01*
G01X196Y9267D01*
G01X196Y9186D01*
G01X215Y9125D01*
G01X257Y9084D01*
G01X298Y9084D01*
G01X338Y9103D01*
G01X359Y9125D01*
G01X380Y9165D01*
G01X421Y9288D01*
G01X440Y9328D01*
G01X461Y9350D01*
G01X503Y9369D01*
G01X563Y9369D01*
G01X605Y9328D01*
G01X625Y9267D01*
G01X625Y9186D01*
G01X605Y9125D01*
G01X563Y9084D01*
G01X196Y9505D02*
G01X625Y9505D01*
G01X196Y9505D02*
G01X196Y9688D01*
G01X215Y9750D01*
G01X236Y9771D01*
G01X278Y9790D01*
G01X338Y9790D01*
G01X380Y9771D01*
G01X400Y9750D01*
G01X421Y9688D01*
G01X421Y9505D01*
G01X196Y9926D02*
G01X625Y9926D01*
G01X196Y9926D02*
G01X196Y10109D01*
G01X215Y10171D01*
G01X236Y10192D01*
G01X278Y10213D01*
G01X319Y10213D01*
G01X359Y10192D01*
G01X380Y10171D01*
G01X400Y10109D01*
G01X400Y9926D02*
G01X400Y10109D01*
G01X421Y10171D01*
G01X440Y10192D01*
G01X482Y10213D01*
G01X544Y10213D01*
G01X584Y10192D01*
G01X605Y10171D01*
G01X625Y10109D01*
G01X625Y9926D01*
G01X196Y10348D02*
G01X625Y10348D01*
G01X196Y10348D02*
G01X196Y10613D01*
G01X400Y10348D02*
G01X400Y10511D01*
G01X625Y10348D02*
G01X625Y10613D01*
G01X196Y10748D02*
G01X625Y10748D01*
G01X196Y10748D02*
G01X196Y10932D01*
G01X215Y10994D01*
G01X236Y11015D01*
G01X278Y11034D01*
G01X319Y11034D01*
G01X359Y11015D01*
G01X380Y10994D01*
G01X400Y10932D01*
G01X400Y10748D01*
G01X400Y10892D02*
G01X625Y11034D01*
G01X196Y11169D02*
G01X625Y11169D01*
G01X196Y11169D02*
G01X196Y11353D01*
G01X215Y11415D01*
G01X236Y11436D01*
G01X278Y11455D01*
G01X319Y11455D01*
G01X359Y11436D01*
G01X380Y11415D01*
G01X400Y11353D01*
G01X400Y11169D01*
G01X400Y11313D02*
G01X625Y11455D01*
G01X196Y11590D02*
G01X400Y11755D01*
G01X625Y11755D01*
G01X196Y11919D02*
G01X400Y11755D01*
G01X196Y12053D02*
G01X625Y12053D01*
G01X196Y12053D02*
G01X196Y12238D01*
G01X215Y12298D01*
G01X236Y12319D01*
G01X278Y12340D01*
G01X338Y12340D01*
G01X380Y12319D01*
G01X400Y12298D01*
G01X421Y12238D01*
G01X421Y12053D01*
G01X196Y12475D02*
G01X625Y12475D01*
G01X196Y12651D02*
G01X196Y12876D01*
G01X359Y12753D01*
G01X359Y12815D01*
G01X380Y12855D01*
G01X400Y12876D01*
G01X461Y12896D01*
G01X503Y12896D01*
G01X563Y12876D01*
G01X605Y12834D01*
G01X625Y12773D01*
G01X625Y12711D01*
G01X605Y12651D01*
G01X584Y12630D01*
G01X544Y12609D01*
G01X196Y13030D02*
G01X625Y13030D01*
G01X196Y13030D02*
G01X196Y13215D01*
G01X215Y13276D01*
G01X236Y13296D01*
G01X278Y13317D01*
G01X319Y13317D01*
G01X359Y13296D01*
G01X380Y13276D01*
G01X400Y13215D01*
G01X400Y13030D02*
G01X400Y13215D01*
G01X421Y13276D01*
G01X440Y13296D01*
G01X482Y13317D01*
G01X544Y13317D01*
G01X584Y13296D01*
G01X605Y13276D01*
G01X625Y13215D01*
G01X625Y13030D01*
G01X257Y13636D02*
G01X625Y13636D01*
G01X440Y13453D02*
G01X440Y13821D01*
G01X15400Y1796D02*
G01X15400Y2225D01*
G01X15400Y2225D02*
G01X15155Y2225D01*
G01X15019Y1796D02*
G01X15019Y2225D01*
G01X15019Y1796D02*
G01X14753Y1796D01*
G01X15019Y2000D02*
G01X14855Y2000D01*
G01X15019Y2225D02*
G01X14753Y2225D01*
G01X14619Y1796D02*
G01X14619Y2225D01*
G01X14619Y1796D02*
G01X14475Y1796D01*
G01X14413Y1815D01*
G01X14373Y1857D01*
G01X14353Y1898D01*
G01X14332Y1959D01*
G01X14332Y2061D01*
G01X14353Y2123D01*
G01X14373Y2163D01*
G01X14413Y2205D01*
G01X14475Y2225D01*
G01X14619Y2225D01*
G01X14196Y1878D02*
G01X14155Y1857D01*
G01X14094Y1796D01*
G01X14094Y2225D01*
G01X5050Y10753D02*
G01X5050Y10325D01*
G01X5050Y10753D02*
G01X5213Y10325D01*
G01X5376Y10753D02*
G01X5213Y10325D01*
G01X5376Y10753D02*
G01X5376Y10325D01*
G01X5511Y10753D02*
G01X5511Y10325D01*
G01X5511Y10753D02*
G01X5696Y10753D01*
G01X5757Y10734D01*
G01X5778Y10713D01*
G01X5798Y10671D01*
G01X5798Y10611D01*
G01X5778Y10569D01*
G01X5757Y10550D01*
G01X5696Y10528D01*
G01X5511Y10528D01*
G01X5934Y10753D02*
G01X5934Y10446D01*
G01X5953Y10386D01*
G01X5994Y10344D01*
G01X6055Y10325D01*
G01X6096Y10325D01*
G01X6159Y10344D01*
G01X6200Y10386D01*
G01X6219Y10446D01*
G01X6219Y10753D01*
G01X6600Y10692D02*
G01X6580Y10734D01*
G01X6519Y10753D01*
G01X6478Y10753D01*
G01X6415Y10734D01*
G01X6375Y10671D01*
G01X6355Y10569D01*
G01X6355Y10467D01*
G01X6375Y10386D01*
G01X6415Y10344D01*
G01X6478Y10325D01*
G01X6498Y10325D01*
G01X6559Y10344D01*
G01X6600Y10386D01*
G01X6621Y10446D01*
G01X6621Y10467D01*
G01X6600Y10528D01*
G01X6559Y10569D01*
G01X6498Y10590D01*
G01X6478Y10590D01*
G01X6415Y10569D01*
G01X6375Y10528D01*
G01X6355Y10467D01*
G01X6878Y10753D02*
G01X6817Y10734D01*
G01X6776Y10671D01*
G01X6755Y10569D01*
G01X6755Y10509D01*
G01X6776Y10405D01*
G01X6817Y10344D01*
G01X6878Y10325D01*
G01X6919Y10325D01*
G01X6980Y10344D01*
G01X7021Y10405D01*
G01X7042Y10509D01*
G01X7042Y10569D01*
G01X7021Y10671D01*
G01X6980Y10734D01*
G01X6919Y10753D01*
G01X6878Y10753D01*
G01X7423Y10753D02*
G01X7217Y10753D01*
G01X7198Y10569D01*
G01X7217Y10590D01*
G01X7280Y10611D01*
G01X7340Y10611D01*
G01X7401Y10590D01*
G01X7442Y10550D01*
G01X7463Y10488D01*
G01X7463Y10446D01*
G01X7442Y10386D01*
G01X7401Y10344D01*
G01X7340Y10325D01*
G01X7280Y10325D01*
G01X7217Y10344D01*
G01X7198Y10365D01*
G01X7176Y10405D01*
G01X7721Y10753D02*
G01X7659Y10734D01*
G01X7619Y10671D01*
G01X7598Y10569D01*
G01X7598Y10509D01*
G01X7619Y10405D01*
G01X7659Y10344D01*
G01X7721Y10325D01*
G01X7761Y10325D01*
G01X7823Y10344D01*
G01X7865Y10405D01*
G01X7884Y10509D01*
G01X7884Y10569D01*
G01X7865Y10671D01*
G01X7823Y10734D01*
G01X7761Y10753D01*
G01X7721Y10753D01*
G01X5232Y2032D02*
G01X5273Y2053D01*
G01X5313Y2094D01*
G01X5334Y2134D01*
G01X5334Y2217D01*
G01X5313Y2257D01*
G01X5273Y2298D01*
G01X5232Y2319D01*
G01X5169Y2340D01*
G01X5067Y2340D01*
G01X5007Y2319D01*
G01X4965Y2298D01*
G01X4925Y2257D01*
G01X4905Y2217D01*
G01X4905Y2134D01*
G01X4925Y2094D01*
G01X4965Y2053D01*
G01X5007Y2032D01*
G01X5251Y1898D02*
G01X5273Y1857D01*
G01X5334Y1796D01*
G01X4905Y1796D01*
G01X8317Y3467D02*
G01X8276Y3446D01*
G01X8236Y3405D01*
G01X8215Y3365D01*
G01X8215Y3282D01*
G01X8236Y3242D01*
G01X8276Y3201D01*
G01X8317Y3180D01*
G01X8380Y3159D01*
G01X8482Y3159D01*
G01X8542Y3180D01*
G01X8584Y3201D01*
G01X8625Y3242D01*
G01X8644Y3282D01*
G01X8644Y3365D01*
G01X8625Y3405D01*
G01X8584Y3446D01*
G01X8542Y3467D01*
G01X8317Y3621D02*
G01X8298Y3621D01*
G01X8257Y3642D01*
G01X8236Y3663D01*
G01X8215Y3703D01*
G01X8215Y3786D01*
G01X8236Y3826D01*
G01X8257Y3846D01*
G01X8298Y3867D01*
G01X8338Y3867D01*
G01X8380Y3846D01*
G01X8440Y3805D01*
G01X8644Y3601D01*
G01X8644Y3888D01*
G01X10317Y3467D02*
G01X10276Y3446D01*
G01X10236Y3405D01*
G01X10215Y3365D01*
G01X10215Y3282D01*
G01X10236Y3242D01*
G01X10276Y3201D01*
G01X10317Y3180D01*
G01X10380Y3159D01*
G01X10482Y3159D01*
G01X10542Y3180D01*
G01X10584Y3201D01*
G01X10625Y3242D01*
G01X10644Y3282D01*
G01X10644Y3365D01*
G01X10625Y3405D01*
G01X10584Y3446D01*
G01X10542Y3467D01*
G01X10215Y3642D02*
G01X10215Y3867D01*
G01X10380Y3744D01*
G01X10380Y3805D01*
G01X10400Y3846D01*
G01X10419Y3867D01*
G01X10482Y3888D01*
G01X10523Y3888D01*
G01X10584Y3867D01*
G01X10625Y3826D01*
G01X10644Y3765D01*
G01X10644Y3703D01*
G01X10625Y3642D01*
G01X10605Y3621D01*
G01X10563Y3601D01*
G01X5532Y5267D02*
G01X5553Y5226D01*
G01X5594Y5186D01*
G01X5634Y5165D01*
G01X5717Y5165D01*
G01X5757Y5186D01*
G01X5798Y5226D01*
G01X5819Y5267D01*
G01X5840Y5330D01*
G01X5840Y5432D01*
G01X5819Y5492D01*
G01X5798Y5534D01*
G01X5757Y5575D01*
G01X5717Y5594D01*
G01X5634Y5594D01*
G01X5594Y5575D01*
G01X5553Y5534D01*
G01X5532Y5492D01*
G01X5194Y5165D02*
G01X5398Y5451D01*
G01X5090Y5451D01*
G01X5194Y5165D02*
G01X5194Y5594D01*
G01X14232Y10082D02*
G01X14273Y10103D01*
G01X14313Y10144D01*
G01X14334Y10184D01*
G01X14334Y10267D01*
G01X14313Y10307D01*
G01X14273Y10348D01*
G01X14232Y10369D01*
G01X14169Y10390D01*
G01X14067Y10390D01*
G01X14007Y10369D01*
G01X13965Y10348D01*
G01X13925Y10307D01*
G01X13905Y10267D01*
G01X13905Y10184D01*
G01X13925Y10144D01*
G01X13965Y10103D01*
G01X14007Y10082D01*
G01X14334Y9703D02*
G01X14334Y9907D01*
G01X14150Y9928D01*
G01X14169Y9907D01*
G01X14190Y9846D01*
G01X14190Y9784D01*
G01X14169Y9723D01*
G01X14130Y9682D01*
G01X14067Y9661D01*
G01X14026Y9661D01*
G01X13965Y9682D01*
G01X13925Y9723D01*
G01X13905Y9784D01*
G01X13905Y9846D01*
G01X13925Y9907D01*
G01X13944Y9928D01*
G01X13986Y9948D01*
G01X8017Y13682D02*
G01X7996Y13723D01*
G01X7955Y13763D01*
G01X7915Y13784D01*
G01X7832Y13784D01*
G01X7792Y13763D01*
G01X7751Y13723D01*
G01X7730Y13682D01*
G01X7709Y13619D01*
G01X7709Y13517D01*
G01X7730Y13457D01*
G01X7751Y13415D01*
G01X7792Y13375D01*
G01X7832Y13355D01*
G01X7915Y13355D01*
G01X7955Y13375D01*
G01X7996Y13415D01*
G01X8017Y13457D01*
G01X8396Y13723D02*
G01X8376Y13763D01*
G01X8315Y13784D01*
G01X8275Y13784D01*
G01X8213Y13763D01*
G01X8171Y13701D01*
G01X8151Y13600D01*
G01X8151Y13498D01*
G01X8171Y13415D01*
G01X8213Y13375D01*
G01X8275Y13355D01*
G01X8294Y13355D01*
G01X8355Y13375D01*
G01X8396Y13415D01*
G01X8417Y13476D01*
G01X8417Y13498D01*
G01X8396Y13559D01*
G01X8355Y13600D01*
G01X8294Y13619D01*
G01X8275Y13619D01*
G01X8213Y13600D01*
G01X8171Y13559D01*
G01X8151Y13498D01*
G01X5657Y13951D02*
G01X5636Y13992D01*
G01X5594Y14034D01*
G01X5555Y14053D01*
G01X5473Y14053D01*
G01X5432Y14034D01*
G01X5390Y13992D01*
G01X5369Y13951D01*
G01X5350Y13890D01*
G01X5350Y13788D01*
G01X5369Y13726D01*
G01X5390Y13686D01*
G01X5432Y13644D01*
G01X5473Y13625D01*
G01X5555Y13625D01*
G01X5594Y13644D01*
G01X5636Y13686D01*
G01X5657Y13726D01*
G01X6078Y14053D02*
G01X5873Y13625D01*
G01X5792Y14053D02*
G01X6078Y14053D01*
G01X5346Y2700D02*
G01X5775Y2700D01*
G01X5775Y2700D02*
G01X5775Y2944D01*
G01X5346Y3080D02*
G01X5775Y3080D01*
G01X5346Y3080D02*
G01X5346Y3223D01*
G01X5365Y3284D01*
G01X5407Y3326D01*
G01X5448Y3346D01*
G01X5509Y3367D01*
G01X5611Y3367D01*
G01X5673Y3346D01*
G01X5713Y3326D01*
G01X5755Y3284D01*
G01X5775Y3223D01*
G01X5775Y3080D01*
G01X5346Y3625D02*
G01X5365Y3584D01*
G01X5407Y3542D01*
G01X5448Y3521D01*
G01X5509Y3501D01*
G01X5611Y3501D01*
G01X5673Y3521D01*
G01X5713Y3542D01*
G01X5755Y3584D01*
G01X5775Y3625D01*
G01X5775Y3705D01*
G01X5755Y3746D01*
G01X5713Y3788D01*
G01X5673Y3809D01*
G01X5611Y3828D01*
G01X5509Y3828D01*
G01X5448Y3809D01*
G01X5407Y3788D01*
G01X5365Y3746D01*
G01X5346Y3705D01*
G01X5346Y3625D01*
G54D10*
G75*
G01X14802Y3812D02*
G03X15800Y3812I499J-609D01*
G01*
G54D21*
G75*
G01X5213Y7976D02*
G03X5215Y7976I-2J-50D01*
G01*
G54D22*
G75*
G01X8170Y1660D02*
G03X8170Y1661I79J1D01*
G01*
M00*
M02*
